<svg xmlns="http://www.w3.org/2000/svg" xmlns:xlink="http://www.w3.org/1999/xlink" version="1.1" width="256" height="256" viewBox="0 0 256 256" xml:space="preserve">

<defs>
</defs>
<g style="stroke: none; stroke-width: 0; stroke-dasharray: none; stroke-linecap: butt; stroke-linejoin: miter; stroke-miterlimit: 10; fill: none; fill-rule: nonzero; opacity: 1;" transform="translate(1.4065934065934016 1.4065934065934016) scale(2.81 2.81)" >
	<path d="M 89.817 67.776 L 61.908 28.191 c -0.19 -0.271 -0.455 -0.423 -0.837 -0.424 c -0.331 0.006 -0.639 0.177 -0.819 0.456 l -9.747 15.017 L 34.273 21.057 c -0.19 -0.261 -0.479 -0.375 -0.819 -0.41 c -0.323 0.004 -0.625 0.164 -0.809 0.429 L 0.179 67.782 c -0.212 0.306 -0.237 0.704 -0.065 1.033 c 0.172 0.33 0.514 0.537 0.886 0.537 h 88 c 0.373 0 0.716 -0.208 0.888 -0.54 C 90.06 68.481 90.032 68.082 89.817 67.776 z M 33.487 23.37 l 16.26 22.221 c 0.193 0.265 0.467 0.425 0.835 0.409 c 0.328 -0.009 0.632 -0.179 0.811 -0.455 l 9.732 -14.993 l 11.796 16.731 l -6.634 2.793 c -2.165 0.913 -4.648 0.721 -6.647 -0.507 c -2.873 -1.763 -6.481 -1.832 -9.418 -0.182 l -1.013 0.569 c -2.511 1.411 -5.624 1.212 -7.933 -0.51 l -0.719 -0.536 c -2.849 -2.123 -6.586 -2.446 -9.755 -0.839 l -1.505 0.762 c -2.402 1.216 -5.265 1.015 -7.472 -0.527 l -3.818 -2.666 L 33.487 23.37 z" style="stroke: none; stroke-width: 1; stroke-dasharray: none; stroke-linecap: butt; stroke-linejoin: miter; stroke-miterlimit: 10; fill: rgb(0,0,0); fill-rule: nonzero; opacity: 1;" transform=" matrix(1 0 0 1 0 0) " stroke-linecap="round" />
</g>
</svg>